# xmcd CD database file
#
# Track frame offsets:
#	8182
#	23275
#	35952
#	52747
#	71972
#	83435
#	99372
#	117882
#	136570
#	151467
#	164255
#	184565
#
# Disc length: 2721 seconds
#
# Revision: 6
# Processed by: cddbd v1.5.1PL0 Copyright (c) Steve Scherf et al.
# Submitted via: CDex 1.51
#
DISCID=830a340c,8f0a340c
DTITLE=Lit - A Place in the Sun
DYEAR=1900
DGENRE=Blues
TTITLE0=Four
TTITLE1=My Own Worst Enemy
TTITLE2=Down
TTITLE3=Miserable
TTITLE4=No Big Thing
TTITLE5=Zip-Lock
TTITLE6=Lovely Day
TTITLE7=Perfect One
TTITLE8=Qicksand
TTITLE9=Happy
TTITLE10=The Best is yet to come undone
TTITLE11=A Place in the Sun
EXTD=
EXTT0=
EXTT1=
EXTT2=
EXTT3=
EXTT4=
EXTT5=
EXTT6=
EXTT7=
EXTT8=
EXTT9=
EXTT10=
EXTT11=
PLAYORDER=
